<mxfile host="app.diagrams.net" modified="2023-01-24T08:41:04.770Z" agent="5.0 (Windows NT 10.0; Win64; x64) AppleWebKit/537.36 (KHTML, like Gecko) Chrome/107.0.0.0 Safari/537.36 OPR/93.0.0.0" etag="QfDPGt4K8THWC1m3FZWJ" version="20.8.9" type="gitlab">
  <diagram name="Page-1" id="tkIdwVAuJyl23j5ssSK_">
    <mxGraphModel dx="1041" dy="478" grid="1" gridSize="10" guides="1" tooltips="1" connect="1" arrows="1" fold="1" page="1" pageScale="1" pageWidth="827" pageHeight="1169" math="0" shadow="0">
      <root>
        <mxCell id="0" />
        <mxCell id="1" parent="0" />
        <mxCell id="JNOPjbBmkHw5YrxjoeXE-1" value="LP" style="whiteSpace=wrap;html=1;align=center;" vertex="1" parent="1">
          <mxGeometry x="40" y="320" width="100" height="40" as="geometry" />
        </mxCell>
        <mxCell id="JNOPjbBmkHw5YrxjoeXE-3" value="Klasse" style="whiteSpace=wrap;html=1;align=center;" vertex="1" parent="1">
          <mxGeometry x="270" y="460" width="100" height="40" as="geometry" />
        </mxCell>
        <mxCell id="JNOPjbBmkHw5YrxjoeXE-4" value="Modul" style="whiteSpace=wrap;html=1;align=center;" vertex="1" parent="1">
          <mxGeometry x="270" y="320" width="100" height="40" as="geometry" />
        </mxCell>
        <mxCell id="JNOPjbBmkHw5YrxjoeXE-5" value="LE" style="whiteSpace=wrap;html=1;align=center;" vertex="1" parent="1">
          <mxGeometry x="270" y="610" width="100" height="40" as="geometry" />
        </mxCell>
        <mxCell id="JNOPjbBmkHw5YrxjoeXE-6" value="m&amp;nbsp; &amp;nbsp; m" style="endArrow=none;html=1;rounded=0;exitX=1;exitY=0.5;exitDx=0;exitDy=0;entryX=0;entryY=0.5;entryDx=0;entryDy=0;" edge="1" parent="1" source="JNOPjbBmkHw5YrxjoeXE-1" target="JNOPjbBmkHw5YrxjoeXE-4">
          <mxGeometry relative="1" as="geometry">
            <mxPoint x="90" y="390" as="sourcePoint" />
            <mxPoint x="250" y="390" as="targetPoint" />
            <Array as="points">
              <mxPoint x="200" y="340" />
            </Array>
          </mxGeometry>
        </mxCell>
        <mxCell id="JNOPjbBmkHw5YrxjoeXE-7" value="m&amp;nbsp;&lt;br&gt;&lt;br&gt;m" style="endArrow=none;html=1;rounded=0;entryX=0.5;entryY=1;entryDx=0;entryDy=0;exitX=0.5;exitY=0;exitDx=0;exitDy=0;" edge="1" parent="1" source="JNOPjbBmkHw5YrxjoeXE-3" target="JNOPjbBmkHw5YrxjoeXE-4">
          <mxGeometry relative="1" as="geometry">
            <mxPoint x="130" y="470" as="sourcePoint" />
            <mxPoint x="290" y="470" as="targetPoint" />
          </mxGeometry>
        </mxCell>
        <mxCell id="JNOPjbBmkHw5YrxjoeXE-8" value="1&lt;br&gt;&lt;br&gt;m" style="endArrow=none;html=1;rounded=0;entryX=0.5;entryY=1;entryDx=0;entryDy=0;exitX=0.5;exitY=0;exitDx=0;exitDy=0;" edge="1" parent="1" source="JNOPjbBmkHw5YrxjoeXE-5" target="JNOPjbBmkHw5YrxjoeXE-3">
          <mxGeometry relative="1" as="geometry">
            <mxPoint x="130" y="470" as="sourcePoint" />
            <mxPoint x="290" y="470" as="targetPoint" />
          </mxGeometry>
        </mxCell>
      </root>
    </mxGraphModel>
  </diagram>
</mxfile>
